<svg width="24" height="25" viewBox="0 0 24 25" fill="none" xmlns="http://www.w3.org/2000/svg">
<path d="M13.9985 4.49902C13.9985 3.39445 13.1031 2.49902 11.9985 2.49902C10.894 2.49902 9.99854 3.39445 9.99854 4.49902L9.99853 10.499H3.99854C2.89397 10.499 1.99854 11.3945 1.99854 12.499C1.99854 13.6036 2.89397 14.499 3.99854 14.499H9.99853L9.99853 20.499C9.99853 21.6036 10.894 22.499 11.9985 22.499C13.1031 22.499 13.9985 21.6036 13.9985 20.499V14.499H19.9985C21.1031 14.499 21.9985 13.6036 21.9985 12.499C21.9985 11.3945 21.1031 10.499 19.9985 10.499H13.9985V4.49902Z" fill="black"/>
</svg>
